<svg width="110" height="28" viewBox="0 0 110 28" fill="none" xmlns="http://www.w3.org/2000/svg">
<path d="M45.3476 18.7581C43.6612 20.9394 41.0582 22.2226 38.3086 22.2409C33.6159 22.2409 29.8765 18.8864 29.8765 14.4504C29.8948 12.3057 30.793 10.271 32.3511 8.8045C33.9092 7.33805 35.9989 6.56816 38.1436 6.65982C40.8932 6.67815 43.4962 7.9613 45.1826 10.1426L42.0664 12.3607C41.2415 10.9859 39.7567 10.1243 38.1619 10.106C35.7606 10.106 33.7992 12.049 33.7809 14.4504C33.8542 16.9067 35.8889 18.8314 38.3453 18.7947C39.94 18.7764 41.4065 17.9882 42.323 16.6867L45.3476 18.7581Z" fill="#63666A"/>
<path d="M50.9934 0.555784H47.0889V21.9111H50.9934V0.555784Z" fill="#63666A"/>
<path d="M61.3318 18.9233C63.8615 18.9417 65.9328 16.9619 66.0245 14.4323C65.8962 11.9393 63.8248 9.97794 61.3318 9.97794C58.8388 9.97794 56.7675 11.9393 56.6391 14.4323C56.7308 16.9619 58.8205 18.96 61.3318 18.9233ZM61.3501 6.64175C63.5132 6.53177 65.6212 7.30166 67.1976 8.76811C68.7924 10.2346 69.709 12.2693 69.7823 14.4323C69.709 16.5953 68.7741 18.63 67.1976 20.0965C65.6029 21.5629 63.4948 22.3328 61.3501 22.2229C56.6575 22.2229 52.8814 18.8317 52.8814 14.4323C52.863 10.0513 56.6208 6.64175 61.3501 6.64175Z" fill="#63666A"/>
<path d="M69.1408 6.95291H73.7235L77.4446 14.9451L81.459 6.95291H85.7118L77.4446 22.8273L69.1408 6.95291Z" fill="#63666A"/>
<path d="M96.8202 12.3608C96.2153 10.8943 94.7672 9.92278 93.1907 9.94111C91.5409 9.92278 90.0195 10.8576 89.3229 12.3608H96.8202ZM99.3315 20.2246C97.7001 21.5445 95.6654 22.2594 93.5757 22.241C88.883 22.241 85.1069 18.8498 85.1069 14.4505C85.1069 12.3241 85.9684 10.2894 87.5082 8.82294C89.048 7.35648 91.1193 6.56826 93.2274 6.65992C95.3171 6.58659 97.3335 7.39315 98.7999 8.8596C100.266 10.3261 101.055 12.3608 100.981 14.4321V15.5503H88.9746C89.5796 17.5667 91.431 18.9232 93.539 18.9048C94.8405 18.9415 96.087 18.4099 96.9668 17.4384L99.3315 20.2246ZM102.869 13.5156C102.869 9.94111 105.601 6.9532 110 6.9532V10.4544C109.065 10.3994 108.167 10.766 107.544 11.4626C106.92 12.1408 106.627 13.0757 106.737 13.9922V21.9111H102.869V13.5156Z" fill="#63666A"/>
<path d="M12.1323 7.53967C12.1507 5.08335 10.6842 2.86534 8.41119 1.91214C6.15651 0.958945 3.53522 1.4722 1.7938 3.19529C0.0523871 4.91838 -0.479204 7.53967 0.455662 9.81268C1.39053 12.0857 3.60855 13.5705 6.06486 13.5705H12.1323V7.53967ZM13.8921 7.53967C13.8737 5.08335 15.3402 2.86534 17.6132 1.91214C19.8679 0.958945 22.4892 1.4722 24.2306 3.19529C25.972 4.91838 26.5036 7.53967 25.5687 9.81268C24.6339 12.0857 22.4159 13.5705 19.9595 13.5705H13.8921V7.53967ZM13.8921 21.3427C13.8737 23.799 15.3402 26.017 17.6132 26.9702C19.8862 27.9234 22.4892 27.4102 24.2306 25.6871C25.972 23.964 26.5036 21.3427 25.5687 19.0697C24.6339 16.7967 22.4159 15.3119 19.9595 15.3119H13.8921V21.3427ZM6.08319 25.6687C8.48451 25.6687 10.4276 23.744 10.4459 21.3427V17.0166H6.08319C3.7002 17.0166 1.75714 18.9597 1.75714 21.3427C1.75714 23.7257 3.68187 25.6687 6.08319 25.6687ZM12.1323 21.3427C12.1507 23.799 10.6842 26.017 8.41119 26.9702C6.13818 27.9234 3.53522 27.4102 1.7938 25.6871C0.0523871 23.964 -0.479204 21.3427 0.455662 19.0697C1.39053 16.7967 3.60855 15.3119 6.06486 15.3119H12.1323V21.3427Z" fill="#43B02A"/>
</svg>
