<svg width="24" height="24" viewBox="0 0 24 24" fill="none" xmlns="http://www.w3.org/2000/svg">
<g id="Add-icon">
<path id="Add-icon_2" d="M12 0C5.37216 0 0 5.37216 0 12C0 18.6278 5.37216 24 12 24C18.6278 24 24 18.6278 24 12C24 5.37216 18.6278 0 12 0ZM18.24 12.96H12.96V18.24C12.96 18.4946 12.8589 18.7388 12.6788 18.9188C12.4988 19.0989 12.2546 19.2 12 19.2C11.7454 19.2 11.5012 19.0989 11.3212 18.9188C11.1411 18.7388 11.04 18.4946 11.04 18.24V12.96H5.76C5.50539 12.96 5.26121 12.8589 5.08118 12.6788C4.90114 12.4988 4.8 12.2546 4.8 12C4.8 11.7454 4.90114 11.5012 5.08118 11.3212C5.26121 11.1411 5.50539 11.04 5.76 11.04H11.04V5.76C11.04 5.50539 11.1411 5.26121 11.3212 5.08118C11.5012 4.90114 11.7454 4.8 12 4.8C12.2546 4.8 12.4988 4.90114 12.6788 5.08118C12.8589 5.26121 12.96 5.50539 12.96 5.76V11.04H18.24C18.4946 11.04 18.7388 11.1411 18.9188 11.3212C19.0989 11.5012 19.2 11.7454 19.2 12C19.2 12.2546 19.0989 12.4988 18.9188 12.6788C18.7388 12.8589 18.4946 12.96 18.24 12.96Z" fill="#63666A"/>
</g>
</svg>
