<svg width="6" height="24" viewBox="0 0 6 24" fill="none" xmlns="http://www.w3.org/2000/svg">
<path d="M3.33329 5.33333C3.86071 5.33333 4.37628 5.17694 4.81481 4.88392C5.25335 4.5909 5.59514 4.17443 5.79697 3.68716C5.99881 3.19989 6.05162 2.66371 5.94872 2.14643C5.84583 1.62914 5.59185 1.15399 5.21891 0.781049C4.84597 0.408109 4.37082 0.154134 3.85353 0.0512404C3.33625 -0.0516535 2.80007 0.00115542 2.31281 0.202989C1.82554 0.404823 1.40906 0.746616 1.11604 1.18515C0.823025 1.62368 0.666627 2.13925 0.666627 2.66667C0.666627 3.37391 0.947579 4.05219 1.44768 4.55229C1.94777 5.05238 2.62605 5.33333 3.33329 5.33333ZM3.33329 18.6667C2.80588 18.6667 2.2903 18.8231 1.85177 19.1161C1.41324 19.4091 1.07145 19.8256 0.869615 20.3128C0.667781 20.8001 0.614973 21.3363 0.717866 21.8536C0.82076 22.3709 1.07474 22.846 1.44768 23.2189C1.82062 23.5919 2.29577 23.8459 2.81305 23.9488C3.33034 24.0517 3.86651 23.9988 4.35378 23.797C4.84105 23.5952 5.25753 23.2534 5.55055 22.8149C5.84356 22.3763 5.99996 21.8607 5.99996 21.3333C5.99996 20.6261 5.71901 19.9478 5.21891 19.4477C4.71881 18.9476 4.04054 18.6667 3.33329 18.6667ZM3.33329 9.33333C2.80588 9.33333 2.2903 9.48973 1.85177 9.78275C1.41324 10.0758 1.07145 10.4922 0.869615 10.9795C0.667781 11.4668 0.614973 12.003 0.717866 12.5202C0.82076 13.0375 1.07474 13.5127 1.44768 13.8856C1.82062 14.2586 2.29577 14.5125 2.81305 14.6154C3.33034 14.7183 3.86651 14.6655 4.35378 14.4637C4.84105 14.2618 5.25753 13.9201 5.55055 13.4815C5.84356 13.043 5.99996 12.5274 5.99996 12C5.99996 11.2928 5.71901 10.6145 5.21891 10.1144C4.71881 9.61429 4.04054 9.33333 3.33329 9.33333Z" fill="#63666A"/>
</svg>
