<svg width="32" height="32" viewBox="0 0 32 32" fill="none" xmlns="http://www.w3.org/2000/svg">
<rect width="32" height="32" rx="16" fill="#F0F0F0"/>
<path d="M22.4837 20.8609L19.8876 18.2648C19.7705 18.1476 19.6116 18.0825 19.445 18.0825H19.0205C19.7392 17.1633 20.1663 16.0072 20.1663 14.7495C20.1663 11.7576 17.742 9.33334 14.7501 9.33334C11.7582 9.33334 9.33398 11.7576 9.33398 14.7495C9.33398 17.7414 11.7582 20.1656 14.7501 20.1656C16.0078 20.1656 17.1639 19.7386 18.0831 19.0199V19.4443C18.0831 19.611 18.1482 19.7698 18.2654 19.887L20.8615 22.4831C21.1063 22.7279 21.5021 22.7279 21.7442 22.4831L22.4811 21.7462C22.7259 21.5014 22.7259 21.1056 22.4837 20.8609ZM14.7501 18.0825C12.9092 18.0825 11.4171 16.5931 11.4171 14.7495C11.4171 12.9085 12.9066 11.4165 14.7501 11.4165C16.5911 11.4165 18.0831 12.9059 18.0831 14.7495C18.0831 16.5904 16.5937 18.0825 14.7501 18.0825Z" fill="#63666A"/>
</svg>
